<svg xmlns="http://www.w3.org/2000/svg" viewBox="0 0 1080 1080" width="1080" height="1080" preserveAspectRatio="xMidYMid meet" style="width: 100%; height: 100%; transform: translate3d(0px, 0px, 0px);"><defs><clipPath id="__lottie_element_2"><rect width="1080" height="1080" x="0" y="0"></rect></clipPath></defs><g clip-path="url(#__lottie_element_2)"><g transform="matrix(1,0,0,1,200.62298583984375,354.905029296875)" opacity="1" style="display: block;"><g opacity="1" transform="matrix(1,0,0,1,0,0)"><g opacity="1" transform="matrix(1,0,0,1,0,0)"><path stroke-linecap="butt" stroke-linejoin="miter" fill-opacity="0" stroke-miterlimit="10" stroke-dasharray=" 16.639 16.639" stroke-dashoffset="0" stroke="rgb(209,219,246)" stroke-opacity="1" stroke-width="3.266" d=" M497.614013671875,1.6710000038146973 C497.614013671875,1.6710000038146973 623.6300048828125,1.6710000038146973 623.6300048828125,1.6710000038146973"></path></g><path stroke-linecap="butt" stroke-linejoin="miter" fill-opacity="0" stroke-miterlimit="10" stroke-dasharray=" 16.639 16.639" stroke-dashoffset="0" stroke="rgb(209,219,246)" stroke-opacity="1" stroke-width="3.266" d=" M497.614013671875,1.6710000038146973 C497.614013671875,1.6710000038146973 623.6300048828125,1.6710000038146973 623.6300048828125,1.6710000038146973"></path></g><g opacity="1" transform="matrix(0.9594399929046631,0,0,1.003159999847412,0,0)"><path stroke-linecap="butt" stroke-linejoin="miter" fill-opacity="0" stroke-miterlimit="10" stroke-dasharray=" 15.358 15.358" stroke-dashoffset="0" stroke="rgb(209,219,246)" stroke-opacity="1" stroke-width="3.266" d=" M517.3330078125,237.2830047607422 C517.3330078125,237.2830047607422 639.843017578125,237.2220001220703 639.843017578125,237.2220001220703"></path></g><g opacity="1" transform="matrix(1,0,0,1,0,0)"><path stroke-linecap="butt" stroke-linejoin="miter" fill-opacity="0" stroke-miterlimit="10" stroke-dasharray=" 15.241 15.241" stroke-dashoffset="0" stroke="rgb(209,219,246)" stroke-opacity="1" stroke-width="3.266" d=" M339.1189880371094,414.5190124511719 C339.1189880371094,414.5190124511719 339.1189880371094,506.0090026855469 339.1189880371094,506.0090026855469"></path></g><g opacity="1" transform="matrix(1,0,0,1,152.70199584960938,381.9989929199219)"><path stroke-linecap="butt" stroke-linejoin="miter" fill-opacity="0" stroke-miterlimit="10" stroke-dasharray=" 15.241 15.241" stroke-dashoffset="0" stroke="rgb(209,219,246)" stroke-opacity="1" stroke-width="3.266" d=" M31.18199920654297,-32.520999908447266 C31.18199920654297,-32.520999908447266 -31.18199920654297,32.520999908447266 -31.18199920654297,32.520999908447266"></path></g><g opacity="1" transform="matrix(1,0,0,1,152.70199584960938,41.999000549316406)"><path stroke-linecap="butt" stroke-linejoin="miter" fill-opacity="0" stroke-miterlimit="10" stroke-dasharray=" 15.241 15.241" stroke-dashoffset="0" stroke="rgb(209,219,246)" stroke-opacity="1" stroke-width="3.266" d=" M30.18199920654297,10.479000091552734 C30.18199920654297,10.479000091552734 -149.1820068359375,10.520999908447266 -149.1820068359375,10.520999908447266 C-149.1820068359375,10.520999908447266 -149.1820068359375,10.520999908447266 -149.1820068359375,10.520999908447266"></path></g><g opacity="1" transform="matrix(1,0,0,1,550.4030151367188,366.135009765625)"><path stroke-linecap="butt" stroke-linejoin="miter" fill-opacity="0" stroke-miterlimit="10" stroke-dasharray=" 15.241 15.241" stroke-dashoffset="0" stroke="rgb(209,219,246)" stroke-opacity="1" stroke-width="3.266" d=" M-57.452999114990234,-70.24800109863281 C-57.452999114990234,-70.24800109863281 57.452999114990234,70.24800109863281 57.452999114990234,70.24800109863281"></path></g></g><g transform="matrix(1,0,0,1,42.87200164794922,338.27899169921875)" opacity="1" style="display: block;"><g opacity="1" transform="matrix(1,0,0,1,79.81700134277344,30.490999221801758)"><path fill="rgb(209,219,246)" fill-opacity="1" d=" M79.56700134277344,30.239999771118164 C79.56700134277344,30.239999771118164 -79.56700134277344,30.239999771118164 -79.56700134277344,30.239999771118164 C-79.56700134277344,30.239999771118164 -79.56700134277344,-26.072999954223633 -79.56700134277344,-26.072999954223633 C-79.56700134277344,-28.375 -77.70099639892578,-30.239999771118164 -75.4000015258789,-30.239999771118164 C-75.4000015258789,-30.239999771118164 75.4000015258789,-30.239999771118164 75.4000015258789,-30.239999771118164 C77.70099639892578,-30.239999771118164 79.56700134277344,-28.375 79.56700134277344,-26.072999954223633 C79.56700134277344,-26.072999954223633 79.56700134277344,30.239999771118164 79.56700134277344,30.239999771118164z"></path></g><g opacity="1" transform="matrix(1,0,0,1,79.81700134277344,34.65700149536133)"><path fill="rgb(49,80,166)" fill-opacity="1" d=" M62.9010009765625,16.39699935913086 C62.9010009765625,16.39699935913086 -62.9010009765625,16.39699935913086 -62.9010009765625,16.39699935913086 C-62.9010009765625,16.39699935913086 -62.9010009765625,-16.39699935913086 -62.9010009765625,-16.39699935913086 C-62.9010009765625,-16.39699935913086 62.9010009765625,-16.39699935913086 62.9010009765625,-16.39699935913086 C62.9010009765625,-16.39699935913086 62.9010009765625,16.39699935913086 62.9010009765625,16.39699935913086z"></path></g><g opacity="1" transform="matrix(1,0,0,1,131.83099365234375,35.194000244140625)"><path stroke-linecap="butt" stroke-linejoin="miter" fill-opacity="0" stroke-miterlimit="10" stroke="rgb(255,144,97)" stroke-opacity="1" stroke-width="2.419" d=" M5.142000198364258,10.21399974822998 C5.142000198364258,10.21399974822998 -5.140999794006348,10.21399974822998 -5.140999794006348,10.21399974822998 C-5.938000202178955,10.21399974822998 -6.585000038146973,9.569000244140625 -6.585000038146973,8.770999908447266 C-6.585000038146973,8.770999908447266 -6.585000038146973,-8.769000053405762 -6.585000038146973,-8.769000053405762 C-6.585000038146973,-9.567000389099121 -5.938000202178955,-10.21399974822998 -5.140999794006348,-10.21399974822998 C-5.140999794006348,-10.21399974822998 5.142000198364258,-10.21399974822998 5.142000198364258,-10.21399974822998 C5.940000057220459,-10.21399974822998 6.585000038146973,-9.567000389099121 6.585000038146973,-8.769000053405762 C6.585000038146973,-8.769000053405762 6.585000038146973,8.770999908447266 6.585000038146973,8.770999908447266 C6.585000038146973,9.569000244140625 5.940000057220459,10.21399974822998 5.142000198364258,10.21399974822998z"></path></g><g opacity="1" transform="matrix(1,0,0,1,79.81700134277344,121.54900360107422)"><path fill="rgb(238,243,251)" fill-opacity="1" d=" M79.56700134277344,60.81800079345703 C79.56700134277344,60.81800079345703 -79.56700134277344,60.81800079345703 -79.56700134277344,60.81800079345703 C-79.56700134277344,60.81800079345703 -79.56700134277344,-60.81800079345703 -79.56700134277344,-60.81800079345703 C-79.56700134277344,-60.81800079345703 79.56700134277344,-60.81800079345703 79.56700134277344,-60.81800079345703 C79.56700134277344,-60.81800079345703 79.56700134277344,60.81800079345703 79.56700134277344,60.81800079345703z"></path></g><g opacity="1" transform="matrix(1,0,0,1,79.81700134277344,187.8090057373047)"><path fill="rgb(209,219,246)" fill-opacity="1" d=" M79.56700134277344,-5.443999767303467 C79.56700134277344,-5.443999767303467 -79.56700134277344,-5.443999767303467 -79.56700134277344,-5.443999767303467 C-79.56700134277344,-5.443999767303467 -79.56700134277344,0.9440000057220459 -79.56700134277344,0.9440000057220459 C-79.56700134277344,3.428999900817871 -77.552001953125,5.443999767303467 -75.06700134277344,5.443999767303467 C-75.06700134277344,5.443999767303467 75.06700134277344,5.443999767303467 75.06700134277344,5.443999767303467 C77.552001953125,5.443999767303467 79.56700134277344,3.428999900817871 79.56700134277344,0.9440000057220459 C79.56700134277344,0.9440000057220459 79.56700134277344,-5.443999767303467 79.56700134277344,-5.443999767303467z"></path></g><g opacity="1" transform="matrix(1,0,0,1,24.84600067138672,83.71399688720703)"><path fill="rgb(255,255,255)" fill-opacity="1" d=" M13.305999755859375,13.305999755859375 C13.305999755859375,13.305999755859375 -13.305999755859375,13.305999755859375 -13.305999755859375,13.305999755859375 C-13.305999755859375,13.305999755859375 -13.305999755859375,-13.305999755859375 -13.305999755859375,-13.305999755859375 C-13.305999755859375,-13.305999755859375 13.305999755859375,-13.305999755859375 13.305999755859375,-13.305999755859375 C13.305999755859375,-13.305999755859375 13.305999755859375,13.305999755859375 13.305999755859375,13.305999755859375z"></path></g><g opacity="1" transform="matrix(1,0,0,1,60.86600112915039,83.71399688720703)"><path fill="rgb(255,255,255)" fill-opacity="1" d=" M13.305999755859375,13.305999755859375 C13.305999755859375,13.305999755859375 -13.305999755859375,13.305999755859375 -13.305999755859375,13.305999755859375 C-13.305999755859375,13.305999755859375 -13.305999755859375,-13.305999755859375 -13.305999755859375,-13.305999755859375 C-13.305999755859375,-13.305999755859375 13.305999755859375,-13.305999755859375 13.305999755859375,-13.305999755859375 C13.305999755859375,-13.305999755859375 13.305999755859375,13.305999755859375 13.305999755859375,13.305999755859375z"></path></g><g opacity="1" transform="matrix(1,0,0,1,96.88600158691406,83.71399688720703)"><path fill="rgb(255,255,255)" fill-opacity="1" d=" M13.305999755859375,13.305999755859375 C13.305999755859375,13.305999755859375 -13.305999755859375,13.305999755859375 -13.305999755859375,13.305999755859375 C-13.305999755859375,13.305999755859375 -13.305999755859375,-13.305999755859375 -13.305999755859375,-13.305999755859375 C-13.305999755859375,-13.305999755859375 13.305999755859375,-13.305999755859375 13.305999755859375,-13.305999755859375 C13.305999755859375,-13.305999755859375 13.305999755859375,13.305999755859375 13.305999755859375,13.305999755859375z"></path></g><g opacity="1" transform="matrix(1,0,0,1,132.906005859375,83.71399688720703)"><path fill="rgb(255,255,255)" fill-opacity="1" d=" M13.305999755859375,13.305999755859375 C13.305999755859375,13.305999755859375 -13.305999755859375,13.305999755859375 -13.305999755859375,13.305999755859375 C-13.305999755859375,13.305999755859375 -13.305999755859375,-13.305999755859375 -13.305999755859375,-13.305999755859375 C-13.305999755859375,-13.305999755859375 13.305999755859375,-13.305999755859375 13.305999755859375,-13.305999755859375 C13.305999755859375,-13.305999755859375 13.305999755859375,13.305999755859375 13.305999755859375,13.305999755859375z"></path></g><g opacity="1" transform="matrix(1,0,0,1,24.84600067138672,119.73400115966797)"><path fill="rgb(255,255,255)" fill-opacity="1" d=" M13.305999755859375,13.305999755859375 C13.305999755859375,13.305999755859375 -13.305999755859375,13.305999755859375 -13.305999755859375,13.305999755859375 C-13.305999755859375,13.305999755859375 -13.305999755859375,-13.305999755859375 -13.305999755859375,-13.305999755859375 C-13.305999755859375,-13.305999755859375 13.305999755859375,-13.305999755859375 13.305999755859375,-13.305999755859375 C13.305999755859375,-13.305999755859375 13.305999755859375,13.305999755859375 13.305999755859375,13.305999755859375z"></path></g><g opacity="1" transform="matrix(1,0,0,1,60.86600112915039,119.73400115966797)"><path fill="rgb(255,255,255)" fill-opacity="1" d=" M13.305999755859375,13.305999755859375 C13.305999755859375,13.305999755859375 -13.305999755859375,13.305999755859375 -13.305999755859375,13.305999755859375 C-13.305999755859375,13.305999755859375 -13.305999755859375,-13.305999755859375 -13.305999755859375,-13.305999755859375 C-13.305999755859375,-13.305999755859375 13.305999755859375,-13.305999755859375 13.305999755859375,-13.305999755859375 C13.305999755859375,-13.305999755859375 13.305999755859375,13.305999755859375 13.305999755859375,13.305999755859375z"></path></g><g opacity="1" transform="matrix(1,0,0,1,96.88600158691406,119.73400115966797)"><path fill="rgb(255,255,255)" fill-opacity="1" d=" M13.305999755859375,13.305999755859375 C13.305999755859375,13.305999755859375 -13.305999755859375,13.305999755859375 -13.305999755859375,13.305999755859375 C-13.305999755859375,13.305999755859375 -13.305999755859375,-13.305999755859375 -13.305999755859375,-13.305999755859375 C-13.305999755859375,-13.305999755859375 13.305999755859375,-13.305999755859375 13.305999755859375,-13.305999755859375 C13.305999755859375,-13.305999755859375 13.305999755859375,13.305999755859375 13.305999755859375,13.305999755859375z"></path></g><g opacity="1" transform="matrix(1,0,0,1,24.84600067138672,155.75399780273438)"><path fill="rgb(255,255,255)" fill-opacity="1" d=" M13.305999755859375,13.305999755859375 C13.305999755859375,13.305999755859375 -13.305999755859375,13.305999755859375 -13.305999755859375,13.305999755859375 C-13.305999755859375,13.305999755859375 -13.305999755859375,-13.305999755859375 -13.305999755859375,-13.305999755859375 C-13.305999755859375,-13.305999755859375 13.305999755859375,-13.305999755859375 13.305999755859375,-13.305999755859375 C13.305999755859375,-13.305999755859375 13.305999755859375,13.305999755859375 13.305999755859375,13.305999755859375z"></path></g><g opacity="1" transform="matrix(1,0,0,1,60.86600112915039,155.75399780273438)"><path fill="rgb(255,255,255)" fill-opacity="1" d=" M13.305999755859375,13.305999755859375 C13.305999755859375,13.305999755859375 -13.305999755859375,13.305999755859375 -13.305999755859375,13.305999755859375 C-13.305999755859375,13.305999755859375 -13.305999755859375,-13.305999755859375 -13.305999755859375,-13.305999755859375 C-13.305999755859375,-13.305999755859375 13.305999755859375,-13.305999755859375 13.305999755859375,-13.305999755859375 C13.305999755859375,-13.305999755859375 13.305999755859375,13.305999755859375 13.305999755859375,13.305999755859375z"></path></g><g opacity="1" transform="matrix(1,0,0,1,96.88600158691406,155.75399780273438)"><path fill="rgb(255,255,255)" fill-opacity="1" d=" M13.305999755859375,13.305999755859375 C13.305999755859375,13.305999755859375 -13.305999755859375,13.305999755859375 -13.305999755859375,13.305999755859375 C-13.305999755859375,13.305999755859375 -13.305999755859375,-13.305999755859375 -13.305999755859375,-13.305999755859375 C-13.305999755859375,-13.305999755859375 13.305999755859375,-13.305999755859375 13.305999755859375,-13.305999755859375 C13.305999755859375,-13.305999755859375 13.305999755859375,13.305999755859375 13.305999755859375,13.305999755859375z"></path></g><g opacity="1" transform="matrix(1,0,0,1,132.906005859375,137.74400329589844)"><path fill="rgb(255,255,255)" fill-opacity="1" d=" M13.305999755859375,31.31599998474121 C13.305999755859375,31.31599998474121 -13.305999755859375,31.31599998474121 -13.305999755859375,31.31599998474121 C-13.305999755859375,31.31599998474121 -13.305999755859375,-31.31599998474121 -13.305999755859375,-31.31599998474121 C-13.305999755859375,-31.31599998474121 13.305999755859375,-31.31599998474121 13.305999755859375,-31.31599998474121 C13.305999755859375,-31.31599998474121 13.305999755859375,31.31599998474121 13.305999755859375,31.31599998474121z"></path></g></g><g transform="matrix(1,0,0,1,817.4719848632812,526.6190185546875)" opacity="1" style="display: block;"><g opacity="1" transform="matrix(1,0,0,1,65.56999969482422,65.56999969482422)"><path fill="rgb(209,219,246)" fill-opacity="1" d=" M65.31999969482422,0 C65.31999969482422,36.07500076293945 36.07600021362305,65.31999969482422 0.0010000000474974513,65.31999969482422 C-36.07600021362305,65.31999969482422 -65.31999969482422,36.07500076293945 -65.31999969482422,0 C-65.31999969482422,-36.07500076293945 -36.07600021362305,-65.31999969482422 0.0010000000474974513,-65.31999969482422 C36.07600021362305,-65.31999969482422 65.31999969482422,-36.07500076293945 65.31999969482422,0z"></path></g><g opacity="1" transform="matrix(1,0,0,1,65.56999969482422,65.57099914550781)"><path fill="rgb(233,238,255)" fill-opacity="1" d=" M47.93600082397461,-0.0010000000474974513 C47.93600082397461,26.474000930786133 26.474000930786133,47.93600082397461 0,47.93600082397461 C-26.474000930786133,47.93600082397461 -47.93600082397461,26.474000930786133 -47.93600082397461,-0.0010000000474974513 C-47.93600082397461,-26.47599983215332 -26.474000930786133,-47.93600082397461 0,-47.93600082397461 C26.474000930786133,-47.93600082397461 47.93600082397461,-26.47599983215332 47.93600082397461,-0.0010000000474974513z"></path></g><g opacity="1" transform="matrix(1,0,0,1,63.08399963378906,63.63100051879883)"><path fill="rgb(171,193,249)" fill-opacity="1" d=" M13.369999885559082,27.288000106811523 C8.170000076293945,27.288000106811523 4.940000057220459,23.594999313354492 4.940000057220459,17.650999069213867 C4.940000057220459,17.650999069213867 4.940000057220459,4.335999965667725 4.940000057220459,4.335999965667725 C4.940000057220459,-1.6100000143051147 8.170000076293945,-5.302999973297119 13.369999885559082,-5.302999973297119 C18.531999588012695,-5.302999973297119 21.739999771118164,-1.6100000143051147 21.739999771118164,4.335999965667725 C21.739999771118164,4.335999965667725 21.739999771118164,17.650999069213867 21.739999771118164,17.650999069213867 C21.739999771118164,23.594999313354492 18.531999588012695,27.288000106811523 13.369999885559082,27.288000106811523z M13.369999885559082,-0.4860000014305115 C12.383000373840332,-0.4860000014305115 9.755999565124512,-0.4860000014305115 9.755999565124512,4.335999965667725 C9.755999565124512,4.335999965667725 9.755999565124512,17.650999069213867 9.755999565124512,17.650999069213867 C9.755999565124512,22.469999313354492 12.383000373840332,22.469999313354492 13.369999885559082,22.469999313354492 C14.342000007629395,22.469999313354492 16.922000885009766,22.469999313354492 16.922000885009766,17.650999069213867 C16.922000885009766,17.650999069213867 16.922000885009766,4.335999965667725 16.922000885009766,4.335999965667725 C16.922000885009766,-0.4860000014305115 14.342000007629395,-0.4860000014305115 13.369999885559082,-0.4860000014305115z M-5.651000022888184,23.076000213623047 C-5.651000022888184,23.076000213623047 -10.135000228881836,21.312999725341797 -10.135000228881836,21.312999725341797 C-10.135000228881836,21.312999725341797 7.364999771118164,-23.138999938964844 7.364999771118164,-23.138999938964844 C7.364999771118164,-23.138999938964844 11.848999977111816,-21.375 11.848999977111816,-21.375 C11.848999977111816,-21.375 -5.651000022888184,23.076000213623047 -5.651000022888184,23.076000213623047z M-13.369999885559082,5.367000102996826 C-18.531999588012695,5.367000102996826 -21.739999771118164,1.6979999542236328 -21.739999771118164,-4.206999778747559 C-21.739999771118164,-4.206999778747559 -21.739999771118164,-17.714000701904297 -21.739999771118164,-17.714000701904297 C-21.739999771118164,-23.6200008392334 -18.531999588012695,-27.288000106811523 -13.369999885559082,-27.288000106811523 C-8.168000221252441,-27.288000106811523 -4.938000202178955,-23.6200008392334 -4.938000202178955,-17.714000701904297 C-4.938000202178955,-17.714000701904297 -4.938000202178955,-4.206999778747559 -4.938000202178955,-4.206999778747559 C-4.938000202178955,1.6979999542236328 -8.168000221252441,5.367000102996826 -13.369999885559082,5.367000102996826z M-13.369999885559082,-22.472000122070312 C-14.342000007629395,-22.472000122070312 -16.922000885009766,-22.472000122070312 -16.922000885009766,-17.714000701904297 C-16.922000885009766,-17.714000701904297 -16.922000885009766,-4.206999778747559 -16.922000885009766,-4.206999778747559 C-16.922000885009766,0.5490000247955322 -14.342000007629395,0.5490000247955322 -13.369999885559082,0.5490000247955322 C-12.380999565124512,0.5490000247955322 -9.755000114440918,0.5490000247955322 -9.755000114440918,-4.206999778747559 C-9.755000114440918,-4.206999778747559 -9.755000114440918,-17.714000701904297 -9.755000114440918,-17.714000701904297 C-9.755000114440918,-22.472000122070312 -12.380999565124512,-22.472000122070312 -13.369999885559082,-22.472000122070312z"></path></g></g><g transform="matrix(1,0,0,1,141.9720001220703,650.5419921875)" opacity="1" style="display: block;"><g opacity="1" transform="matrix(1,0,0,1,11.89799976348877,79.36799621582031)"><path fill="rgb(49,80,166)" fill-opacity="1" d=" M-11.64799976348877,-2.7769999504089355 C-11.64799976348877,-2.7769999504089355 168.74200439453125,-2.8589999675750732 168.74200439453125,-2.8589999675750732 C168.74200439453125,-2.8589999675750732 78.3219985961914,57.85300064086914 78.3219985961914,57.85300064086914 C78.3219985961914,57.85300064086914 -11.64799976348877,-2.7769999504089355 -11.64799976348877,-2.7769999504089355z"></path></g><g opacity="1" transform="matrix(1,0,0,0.8189499378204346,168.77301025390625,78.16968536376953)"><path fill="rgb(50,80,166)" fill-opacity="1" d=" M-169.06199645996094,-1.809000015258789 C-169.06199645996094,-1.809000015258789 12.633999824523926,-1.3040000200271606 12.633999824523926,-1.3040000200271606 C12.633999824523926,-1.3040000200271606 -78.63500213623047,-76.04499816894531 -78.63500213623047,-76.04499816894531 C-78.63500213623047,-76.04499816894531 -169.06199645996094,-1.809000015258789 -169.06199645996094,-1.809000015258789z"></path></g><g opacity="1" transform="matrix(1,0,0,1,0,0)"><g opacity="1" transform="matrix(1,0,0,1,0,0)"><g opacity="1" transform="matrix(1,0,0,1,90.03099822998047,70.49800109863281)"><path fill="rgb(238,243,251)" fill-opacity="1" d=" M66.48500061035156,70.24800109863281 C66.48500061035156,70.24800109863281 -66.48500061035156,70.24800109863281 -66.48500061035156,70.24800109863281 C-66.48500061035156,70.24800109863281 -66.48500061035156,-70.24800109863281 -66.48500061035156,-70.24800109863281 C-66.48500061035156,-70.24800109863281 39.948001861572266,-70.4540023803711 39.948001861572266,-70.4540023803711 C44.257999420166016,-66.1449966430664 62.13199996948242,-47.52199935913086 66.44300079345703,-43.21099853515625 C66.44300079345703,-43.21099853515625 66.48500061035156,70.24800109863281 66.48500061035156,70.24800109863281z"></path></g><g opacity="1" transform="matrix(1,0,0,1,143.1649932861328,13.60099983215332)"><path fill="rgb(49,80,166)" fill-opacity="1" d=" M13.35099983215332,13.350000381469727 C13.35099983215332,13.350000381469727 -13.35099983215332,13.350000381469727 -13.35099983215332,13.350000381469727 C-13.35099983215332,13.350000381469727 -13.35099983215332,-13.350000381469727 -13.35099983215332,-13.350000381469727 C-13.35099983215332,-13.350000381469727 13.35099983215332,13.350000381469727 13.35099983215332,13.350000381469727z"></path></g></g><g opacity="1" transform="matrix(1,0,0,1,68.9749984741211,43.08000183105469)"><path fill="rgb(255,255,255)" fill-opacity="1" d=" M21.05699920654297,2.552999973297119 C21.05699920654297,2.552999973297119 -21.05699920654297,2.552999973297119 -21.05699920654297,2.552999973297119 C-21.05699920654297,2.552999973297119 -21.05699920654297,-2.552999973297119 -21.05699920654297,-2.552999973297119 C-21.05699920654297,-2.552999973297119 21.05699920654297,-2.552999973297119 21.05699920654297,-2.552999973297119 C21.05699920654297,-2.552999973297119 21.05699920654297,2.552999973297119 21.05699920654297,2.552999973297119z"></path></g><g opacity="1" transform="matrix(1,0,0,1,88.86599731445312,66.73400115966797)"><path fill="rgb(255,255,255)" fill-opacity="1" d=" M40.948001861572266,2.552999973297119 C40.948001861572266,2.552999973297119 -40.948001861572266,2.552999973297119 -40.948001861572266,2.552999973297119 C-40.948001861572266,2.552999973297119 -40.948001861572266,-2.552999973297119 -40.948001861572266,-2.552999973297119 C-40.948001861572266,-2.552999973297119 40.948001861572266,-2.552999973297119 40.948001861572266,-2.552999973297119 C40.948001861572266,-2.552999973297119 40.948001861572266,2.552999973297119 40.948001861572266,2.552999973297119z"></path></g><g opacity="1" transform="matrix(1,0,0,1,88.86599731445312,89.4489974975586)"><path fill="rgb(255,255,255)" fill-opacity="1" d=" M40.948001861572266,2.552999973297119 C40.948001861572266,2.552999973297119 -40.948001861572266,2.552999973297119 -40.948001861572266,2.552999973297119 C-40.948001861572266,2.552999973297119 -40.948001861572266,-2.552999973297119 -40.948001861572266,-2.552999973297119 C-40.948001861572266,-2.552999973297119 40.948001861572266,-2.552999973297119 40.948001861572266,-2.552999973297119 C40.948001861572266,-2.552999973297119 40.948001861572266,2.552999973297119 40.948001861572266,2.552999973297119z"></path></g><g opacity="1" transform="matrix(1,0,0,1,75.04499816894531,112.16300201416016)"><path fill="rgb(255,255,255)" fill-opacity="1" d=" M27.12700080871582,2.552999973297119 C27.12700080871582,2.552999973297119 -27.12700080871582,2.552999973297119 -27.12700080871582,2.552999973297119 C-27.12700080871582,2.552999973297119 -27.12700080871582,-2.552999973297119 -27.12700080871582,-2.552999973297119 C-27.12700080871582,-2.552999973297119 27.12700080871582,-2.552999973297119 27.12700080871582,-2.552999973297119 C27.12700080871582,-2.552999973297119 27.12700080871582,2.552999973297119 27.12700080871582,2.552999973297119z"></path></g></g><g opacity="1" transform="matrix(1,0,0,1,90.20999908447266,136.08700561523438)"><path fill="rgb(209,219,246)" fill-opacity="1" d=" M0,0.7170000076293945 C0,0.7170000076293945 -89.95999908447266,-59.49599838256836 -89.95999908447266,-59.49599838256836 C-89.95999908447266,-59.49599838256836 -89.95999908447266,59.49599838256836 -89.95999908447266,59.49599838256836 C-89.95999908447266,59.49599838256836 89.95999908447266,59.49599838256836 89.95999908447266,59.49599838256836 C89.95999908447266,59.49599838256836 90.45999908447266,-59.62099838256836 90.45999908447266,-59.62099838256836 C90.45999908447266,-59.62099838256836 0,0.7170000076293945 0,0.7170000076293945z"></path></g><g opacity="1" transform="matrix(1,0,0,1,45.22999954223633,165.29800415039062)"><path fill="rgb(177,196,245)" fill-opacity="1" d=" M-44.97999954223633,26.74799919128418 C-44.97999954223633,26.74799919128418 -44.97999954223633,30.28499984741211 -44.97999954223633,30.28499984741211 C-44.97999954223633,30.28499984741211 44.97999954223633,-28.493999481201172 44.97999954223633,-28.493999481201172 C44.97999954223633,-28.493999481201172 42.30500030517578,-30.28499984741211 42.30500030517578,-30.28499984741211 C42.30500030517578,-30.28499984741211 -44.97999954223633,26.74799919128418 -44.97999954223633,26.74799919128418z"></path></g><g opacity="1" transform="matrix(1,0,0,1,135.1909942626953,165.29800415039062)"><path fill="rgb(177,196,245)" fill-opacity="1" d=" M-43.30500030517578,-30.03499984741211 C-43.30500030517578,-30.03499984741211 -44.97999954223633,-28.493999481201172 -44.97999954223633,-28.493999481201172 C-44.97999954223633,-28.493999481201172 44.97999954223633,30.28499984741211 44.97999954223633,30.28499984741211 C44.97999954223633,30.28499984741211 44.97999954223633,26.74799919128418 44.97999954223633,26.74799919128418 C44.97999954223633,26.74799919128418 -43.30500030517578,-30.03499984741211 -43.30500030517578,-30.03499984741211z"></path></g><g opacity="1" transform="matrix(1,0,0,1,0,0)"><path fill="rgb(255,255,255)" fill-opacity="1" d=" M180.02699279785156,195.45799255371094 C180.02699279785156,195.45799255371094 0.5270000100135803,195.70799255371094 0.5270000100135803,195.70799255371094 C0.5270000100135803,195.70799255371094 10.527000427246094,289.9580078125 10.527000427246094,289.9580078125 C10.527000427246094,289.9580078125 171.77699279785156,293.9580078125 171.77699279785156,293.9580078125 C171.77699279785156,293.9580078125 180.02699279785156,195.45799255371094 180.02699279785156,195.45799255371094z"></path><path stroke-linecap="butt" stroke-linejoin="miter" fill-opacity="0" stroke-miterlimit="4" stroke="rgb(239,240,249)" stroke-opacity="1" stroke-width="0" d=" M180.02699279785156,195.45799255371094 C180.02699279785156,195.45799255371094 0.5270000100135803,195.70799255371094 0.5270000100135803,195.70799255371094 C0.5270000100135803,195.70799255371094 10.527000427246094,289.9580078125 10.527000427246094,289.9580078125 C10.527000427246094,289.9580078125 171.77699279785156,293.9580078125 171.77699279785156,293.9580078125 C171.77699279785156,293.9580078125 180.02699279785156,195.45799255371094 180.02699279785156,195.45799255371094z"></path></g></g><g transform="matrix(1,0,0,1,469.38800048828125,851.5240478515625)" opacity="1" style="display: block;"><g opacity="1" transform="matrix(1,0,0,1,70.35399627685547,122.70700073242188)"><path fill="rgb(233,238,255)" fill-opacity="1" d=" M70.10399627685547,4.289999961853027 C70.10399627685547,36.19200134277344 38.74399948120117,62.07600021362305 -0.0010000000474974513,62.07600021362305 C-38.702999114990234,62.07600021362305 -70.10399627685547,36.19200134277344 -70.10399627685547,4.289999961853027 C-70.10399627685547,-16.08799934387207 -57.32699966430664,-44.33000183105469 -38.03799819946289,-62.07600021362305 C-36.917999267578125,-61.803001403808594 -35.75600051879883,-61.63199996948242 -34.512001037597656,-61.63199996948242 C-34.512001037597656,-61.63199996948242 34.512001037597656,-61.63199996948242 34.512001037597656,-61.63199996948242 C35.71500015258789,-61.63199996948242 36.917999267578125,-61.76900100708008 38.03799819946289,-62.04199981689453 C57.32699966430664,-44.262001037597656 70.10399627685547,-16.08799934387207 70.10399627685547,4.289999961853027z"></path></g><g opacity="1" transform="matrix(1,0,0,1,69.7969970703125,20.954999923706055)"><path fill="rgb(233,238,255)" fill-opacity="1" d=" M38.47100067138672,20.704999923706055 C38.47100067138672,20.704999923706055 45.9900016784668,-9.189000129699707 45.9900016784668,-9.189000129699707 C47.52799987792969,-15.300999641418457 41.2760009765625,-20.663999557495117 34.65700149536133,-18.91200065612793 C34.65700149536133,-18.91200065612793 10.123000144958496,-12.416000366210938 10.123000144958496,-12.416000366210938 C3.765000104904175,-10.732000350952148 -3.071000099182129,-10.720999717712402 -9.437000274658203,-12.383000373840332 C-9.437000274658203,-12.383000373840332 -34.69200134277344,-18.97800064086914 -34.69200134277344,-18.97800064086914 C-41.303001403808594,-20.704999923706055 -47.527000427246094,-15.345999717712402 -45.99300003051758,-9.246999740600586 C-45.99300003051758,-9.246999740600586 -38.45899963378906,20.704999923706055 -38.45899963378906,20.704999923706055 C-38.45899963378906,20.704999923706055 38.47100067138672,20.704999923706055 38.47100067138672,20.704999923706055z"></path></g><g opacity="1" transform="matrix(1,0,0,1,70.35299682617188,51.125)"><path fill="rgb(171,193,249)" fill-opacity="1" d=" M46.625,0 C46.625,2.734999895095825 45.25600051879883,5.230999946594238 43.05799865722656,7.010000228881836 C41.6879997253418,8.17199993133545 39.94599914550781,9.026000022888184 38.03799819946289,9.539999961853027 C36.91899871826172,9.812999725341797 35.715999603271484,9.949999809265137 34.51300048828125,9.949999809265137 C34.51300048828125,9.949999809265137 -34.51300048828125,9.949999809265137 -34.51300048828125,9.949999809265137 C-35.75699996948242,9.949999809265137 -36.917999267578125,9.779000282287598 -38.03900146484375,9.505999565124512 C-42.974998474121094,8.239999771118164 -46.625,4.445000171661377 -46.625,0 C-46.625,-2.734999895095825 -45.25600051879883,-5.230999946594238 -43.05799865722656,-7.010000228881836 C-40.85900115966797,-8.821000099182129 -37.83100128173828,-9.949999809265137 -34.51300048828125,-9.949999809265137 C-34.51300048828125,-9.949999809265137 34.51300048828125,-9.949999809265137 34.51300048828125,-9.949999809265137 C41.191001892089844,-9.949999809265137 46.625,-5.4710001945495605 46.625,0z"></path></g><g opacity="1" transform="matrix(1,0,0,1,70.35600280761719,122.70700073242188)"><path fill="rgb(171,193,250)" fill-opacity="1" d=" M-1.7339999675750732,-37.354000091552734 C-1.7339999675750732,-37.354000091552734 -1.7339999675750732,-31.874000549316406 -1.7339999675750732,-31.874000549316406 C-9.954999923706055,-31.054000854492188 -13.515999794006348,-25.025999069213867 -13.515999794006348,-16.076000213623047 C-13.515999794006348,1.6440000534057617 9.590999603271484,1.371999979019165 9.590999603271484,16.621999740600586 C9.590999603271484,23.56399917602539 6.943999767303467,28.496999740600586 -0.09099999815225601,28.496999740600586 C-7.126999855041504,28.496999740600586 -9.77299976348877,23.56399917602539 -9.77299976348877,16.621999740600586 C-9.77299976348877,16.621999740600586 -9.77299976348877,12.875 -9.77299976348877,12.875 C-9.77299976348877,12.875 -13.791999816894531,12.875 -13.791999816894531,12.875 C-13.791999816894531,12.875 -13.791999816894531,16.440000534057617 -13.791999816894531,16.440000534057617 C-13.791999816894531,25.025999069213867 -10.319999694824219,31.601999282836914 -1.7339999675750732,32.23899841308594 C-1.7339999675750732,32.23899841308594 -1.7339999675750732,37.354000091552734 -1.7339999675750732,37.354000091552734 C-1.7339999675750732,37.354000091552734 1.8289999961853027,37.354000091552734 1.8289999961853027,37.354000091552734 C1.8289999961853027,37.354000091552734 1.8289999961853027,32.23899841308594 1.8289999961853027,32.23899841308594 C10.321000099182129,31.507999420166016 13.791999816894531,24.93199920654297 13.791999816894531,16.440000534057617 C13.791999816894531,-1.184999942779541 -9.317999839782715,-0.8199999928474426 -9.317999839782715,-16.35099983215332 C-9.317999839782715,-23.106000900268555 -6.761000156402588,-28.131000518798828 0.18000000715255737,-28.131000518798828 C7.122000217437744,-28.131000518798828 9.680000305175781,-23.106000900268555 9.680000305175781,-16.257999420166016 C9.680000305175781,-16.257999420166016 9.680000305175781,-14.61400032043457 9.680000305175781,-14.61400032043457 C9.680000305175781,-14.61400032043457 13.697999954223633,-14.61400032043457 13.697999954223633,-14.61400032043457 C13.697999954223633,-14.61400032043457 13.697999954223633,-16.076000213623047 13.697999954223633,-16.076000213623047 C13.697999954223633,-24.566999435424805 10.321000099182129,-31.14299964904785 1.8289999961853027,-31.874000549316406 C1.8289999961853027,-31.874000549316406 1.8289999961853027,-37.354000091552734 1.8289999961853027,-37.354000091552734 C1.8289999961853027,-37.354000091552734 -1.7339999675750732,-37.354000091552734 -1.7339999675750732,-37.354000091552734z"></path></g></g><g transform="matrix(1,0,0,1,384.2560119628906,186.40301513671875)" opacity="1" style="display: block;"><g opacity="1" transform="matrix(1,0,0,1,155.48500061035156,291.635986328125)"><path fill="rgb(238,243,251)" fill-opacity="1" d=" M139.08799743652344,291.385986328125 C139.08799743652344,291.385986328125 -139.08599853515625,291.385986328125 -139.08599853515625,291.385986328125 C-148.0050048828125,291.385986328125 -155.23500061035156,284.1570129394531 -155.23500061035156,275.239013671875 C-155.23500061035156,275.239013671875 -155.23500061035156,-275.2380065917969 -155.23500061035156,-275.2380065917969 C-155.23500061035156,-284.156005859375 -148.0050048828125,-291.385986328125 -139.08599853515625,-291.385986328125 C-139.08599853515625,-291.385986328125 139.08799743652344,-291.385986328125 139.08799743652344,-291.385986328125 C148.00599670410156,-291.385986328125 155.23500061035156,-284.156005859375 155.23500061035156,-275.2380065917969 C155.23500061035156,-275.2380065917969 155.23500061035156,275.239013671875 155.23500061035156,275.239013671875 C155.23500061035156,284.1570129394531 148.00599670410156,291.385986328125 139.08799743652344,291.385986328125z"></path></g><g opacity="1" transform="matrix(1,0,0,1,156.427001953125,292.6440124511719)"><path fill="rgb(255,255,255)" fill-opacity="1" d=" M138.97300720214844,217.12899780273438 C138.97300720214844,217.12899780273438 -138.97300720214844,217.12899780273438 -138.97300720214844,217.12899780273438 C-138.97300720214844,217.12899780273438 -138.97300720214844,-217.12899780273438 -138.97300720214844,-217.12899780273438 C-138.97300720214844,-217.12899780273438 138.97300720214844,-217.12899780273438 138.97300720214844,-217.12899780273438 C138.97300720214844,-217.12899780273438 138.97300720214844,217.12899780273438 138.97300720214844,217.12899780273438z"></path></g><g opacity="1" transform="matrix(1,0,0,1,194.51699829101562,417.7139892578125)"><path fill="rgb(142,32,253)" fill-opacity="1" d=" M100.88300323486328,14.149999618530273 C25.04400062561035,3.003000020980835 -46.720001220703125,-33.40399932861328 -100.88300323486328,-92.05699920654297 C-93.22200012207031,-73.02200317382812 -83.83899688720703,-54.38600158691406 -72.47599792480469,-36.426998138427734 C-35.513999938964844,21.993000030517578 16.204999923706055,65.4000015258789 74.7509994506836,92.05699920654297 C74.7509994506836,92.05699920654297 100.88300323486328,92.05699920654297 100.88300323486328,92.05699920654297 C100.88300323486328,92.05699920654297 100.88300323486328,14.149999618530273 100.88300323486328,14.149999618530273z"></path></g><g opacity="1" transform="matrix(1,0,0,1,156.427001953125,247.69500732421875)"><path fill="rgb(5,146,253)" fill-opacity="1" d=" M137.46400451660156,165.2220001220703 C136.8679962158203,165.03399658203125 136.27099609375,164.85400390625 135.67599487304688,164.66200256347656 C134.2760009765625,164.21099853515625 132.88299560546875,163.73899841308594 131.48899841308594,163.26499938964844 C130.86399841308594,163.05299377441406 130.23699951171875,162.84800720214844 129.61300659179688,162.63099670410156 C128.25100708007812,162.1580047607422 126.89600372314453,161.66299438476562 125.54000091552734,161.1699981689453 C124.88999938964844,160.9320068359375 124.23799896240234,160.7010040283203 123.58999633789062,160.4600067138672 C122.26000213623047,159.96200561523438 120.93699645996094,159.447998046875 119.61399841308594,158.93099975585938 C118.947998046875,158.6699981689453 118.27899932861328,158.4149932861328 117.61399841308594,158.14999389648438 C116.30899810791016,157.6280059814453 115.00800323486328,157.08799743652344 113.70899963378906,156.54600524902344 C113.03900146484375,156.26800537109375 112.36499786376953,155.9929962158203 111.6969985961914,155.70599365234375 C110.40499877929688,155.156005859375 109.12100219726562,154.58999633789062 107.83699798583984,154.02000427246094 C107.16899871826172,153.72300720214844 106.5,153.42999267578125 105.83399963378906,153.1269989013672 C104.55699920654297,152.5469970703125 103.28299713134766,151.9530029296875 102.01399993896484,151.35499572753906 C101.35099792480469,151.04200744628906 100.68800354003906,150.73199462890625 100.0270004272461,150.41400146484375 C98.76300048828125,149.80599975585938 97.50499725341797,149.18299865722656 96.2490005493164,148.55499267578125 C95.59200286865234,148.2270050048828 94.93299865722656,147.89999389648438 94.27799987792969,147.56500244140625 C93.0270004272461,146.92799377441406 91.78299713134766,146.2779998779297 90.54100036621094,145.6199951171875 C89.88999938964844,145.27699279785156 89.23899841308594,144.9320068359375 88.58999633789062,144.58200073242188 C87.35099792480469,143.91400146484375 86.11699676513672,143.23500061035156 84.88700103759766,142.5469970703125 C84.24800109863281,142.19000244140625 83.61000061035156,141.83200073242188 82.9729995727539,141.47000122070312 C81.74299621582031,140.77000427246094 80.5199966430664,140.05999755859375 79.30000305175781,139.3419952392578 C78.6709976196289,138.9709930419922 78.04399871826172,138.60000610351562 77.41899871826172,138.22500610351562 C76.1969985961914,137.4929962158203 74.98100280761719,136.74899291992188 73.7699966430664,135.9980010986328 C73.15899658203125,135.6179962158203 72.5530014038086,135.23899841308594 71.94499969482422,134.85499572753906 C70.72799682617188,134.0850067138672 69.51499938964844,133.3070068359375 68.30799865722656,132.51800537109375 C67.71900177001953,132.13400268554688 67.13200378417969,131.7449951171875 66.5459976196289,131.3560028076172 C65.33300018310547,130.5500030517578 64.1259994506836,129.73800659179688 62.92499923706055,128.91099548339844 C62.354000091552734,128.5189971923828 61.78300094604492,128.1219940185547 61.21500015258789,127.72599792480469 C60.0099983215332,126.88300323486328 58.810001373291016,126.03500366210938 57.6150016784668,125.1729965209961 C57.066001892089844,124.7760009765625 56.51900100708008,124.37300109863281 55.97100067138672,123.97100067138672 C54.77000045776367,123.09100341796875 53.571998596191406,122.2030029296875 52.38399887084961,121.3030014038086 C51.856998443603516,120.90299987792969 51.33300018310547,120.49700164794922 50.808998107910156,120.09300231933594 C49.60900115966797,119.16999816894531 48.41299819946289,118.24099731445312 47.22700119018555,117.2959976196289 C46.731998443603516,116.90299987792969 46.2400016784668,116.50199890136719 45.74800109863281,116.10399627685547 C44.54600143432617,115.13400268554688 43.34700012207031,114.15899658203125 42.15800094604492,113.16600036621094 C41.69200134277344,112.77799987792969 41.23400115966797,112.38200378417969 40.77000045776367,111.98999786376953 C39.564998626708984,110.97000122070312 38.36399841308594,109.94599914550781 37.17399978637695,108.90499877929688 C36.74599838256836,108.52999877929688 36.32400131225586,108.14700317382812 35.89799880981445,107.7699966430664 C34.685001373291016,106.69400024414062 33.474998474121094,105.61299896240234 32.277000427246094,104.51300048828125 C31.89699935913086,104.16300201416016 31.520999908447266,103.80599975585938 31.141000747680664,103.4530029296875 C29.909000396728516,102.30899810791016 28.683000564575195,101.15899658203125 27.4689998626709,99.99199676513672 C27.149999618530273,99.68299865722656 26.833999633789062,99.36799621582031 26.516000747680664,99.05799865722656 C25.253999710083008,97.83000183105469 23.996999740600586,96.5979995727539 22.7549991607666,95.34300231933594 C22.514999389648438,95.0999984741211 22.277999877929688,94.85099792480469 22.038000106811523,94.60700225830078 C20.729999542236328,93.2750015258789 19.427000045776367,91.93299865722656 18.139999389648438,90.57099914550781 C18.006999969482422,90.42900085449219 17.87700080871582,90.28399658203125 17.743999481201172,90.14299774169922 C8.869999885559082,80.7020034790039 0.5540000200271606,70.5510025024414 -7.10699987411499,59.694000244140625 C-9.847999572753906,55.808998107910156 -12.508999824523926,51.8380012512207 -15.079000473022461,47.7760009765625 C-58.159000396728516,-20.315000534057617 -68.25299835205078,-99.86599731445312 -49.60200119018555,-172.17999267578125 C-49.60200119018555,-172.17999267578125 -138.97300720214844,-172.17999267578125 -138.97300720214844,-172.17999267578125 C-138.97300720214844,-172.17999267578125 -138.97300720214844,-98.34500122070312 -138.97300720214844,-98.34500122070312 C-130.43299865722656,-59.367000579833984 -114.90399932861328,-21.049999237060547 -92.11900329589844,14.960000038146973 C-85.35099792480469,25.659000396728516 -78.05400085449219,35.8129997253418 -70.3270034790039,45.47100067138672 C-65.08100128173828,52.0260009765625 -59.643001556396484,58.36000061035156 -54.01499938964844,64.45500183105469 C-1.315999984741211,121.52200317382812 66.18499755859375,159.27499389648438 138.97300720214844,172.17999267578125 C138.97300720214844,172.17999267578125 138.97300720214844,165.6929931640625 138.97300720214844,165.6929931640625 C138.468994140625,165.53799438476562 137.9669952392578,165.3800048828125 137.46400451660156,165.2220001220703z"></path></g><g opacity="1" transform="matrix(1,0,0,1,156.427001953125,290.60699462890625)"><path fill="rgb(0,255,255)" fill-opacity="1" d=" M-54.01599884033203,21.542999267578125 C-59.64400100708008,15.446999549865723 -65.08200073242188,9.11400032043457 -70.3270034790039,2.559999942779541 C-78.05500030517578,-7.098999977111816 -85.35099792480469,-17.253999710083008 -92.12000274658203,-27.95199966430664 C-114.90399932861328,-63.9630012512207 -130.43299865722656,-102.27899932861328 -138.97300720214844,-141.25799560546875 C-138.97300720214844,-141.25799560546875 -138.97300720214844,-97.23400115966797 -138.97300720214844,-97.23400115966797 C-138.322998046875,-95.11499786376953 -137.68499755859375,-92.99400329589844 -136.99200439453125,-90.88300323486328 C-136.76699829101562,-90.19999694824219 -136.53199768066406,-89.51799774169922 -136.30299377441406,-88.83599853515625 C-135.36399841308594,-86.03500366210938 -134.38400268554688,-83.24400329589844 -133.36900329589844,-80.45800018310547 C-133.09500122070312,-79.70999908447266 -132.8280029296875,-78.95800018310547 -132.5489959716797,-78.21099853515625 C-131.29400634765625,-74.84300231933594 -129.99400329589844,-71.48600006103516 -128.625,-68.1449966430664 C-128.52000427246094,-67.88600158691406 -128.406005859375,-67.62999725341797 -128.3000030517578,-67.37200164794922 C-127.0479965209961,-64.33699798583984 -125.74099731445312,-61.314998626708984 -124.39600372314453,-58.30400085449219 C-124,-57.417999267578125 -123.5979995727539,-56.534000396728516 -123.19499969482422,-55.650001525878906 C-121.96700286865234,-52.96099853515625 -120.70099639892578,-50.28099822998047 -119.39700317382812,-47.61199951171875 C-119.09400177001953,-46.99300003051758 -118.80400085449219,-46.36899948120117 -118.49700164794922,-45.75 C-116.90899658203125,-42.54800033569336 -115.26200103759766,-39.36000061035156 -113.56400299072266,-36.189998626708984 C-113.16000366210938,-35.43600082397461 -112.73999786376953,-34.6870002746582 -112.33000183105469,-33.935001373291016 C-110.96700286865234,-31.434999465942383 -109.56900024414062,-28.944000244140625 -108.13800048828125,-26.465999603271484 C-107.6240005493164,-25.576000213623047 -107.11199951171875,-24.687000274658203 -106.58999633789062,-23.802000045776367 C-104.74199676513672,-20.66699981689453 -102.85700225830078,-17.54199981689453 -100.89600372314453,-14.444000244140625 C-89.53399658203125,3.5169999599456787 -76.71199798583984,19.976999282836914 -62.79199981689453,35.04899978637695 C-8.630000114440918,93.7020034790039 63.13399887084961,130.10899353027344 138.97300720214844,141.2570037841797 C138.97300720214844,141.2570037841797 138.97300720214844,129.26800537109375 138.97300720214844,129.26800537109375 C66.18499755859375,116.36199951171875 -1.315999984741211,78.60900115966797 -54.01599884033203,21.542999267578125z"></path></g></g><g transform="matrix(-1,0,0,1,993.8720092773438,789.60498046875)" opacity="1" style="display: block;"><g opacity="1" transform="matrix(1,0,0,1,93.5260009765625,65.3010025024414)"><path fill="rgb(233,238,255)" fill-opacity="1" d=" M89.49800109863281,65.0510025024414 C89.49800109863281,65.0510025024414 -89.4990005493164,65.0510025024414 -89.4990005493164,65.0510025024414 C-91.58499908447266,65.0510025024414 -93.2750015258789,63.36000061035156 -93.2750015258789,61.27299880981445 C-93.2750015258789,61.27299880981445 -93.2750015258789,-61.27299880981445 -93.2750015258789,-61.27299880981445 C-93.2750015258789,-63.35900115966797 -91.58499908447266,-65.0510025024414 -89.4990005493164,-65.0510025024414 C-89.4990005493164,-65.0510025024414 89.49800109863281,-65.0510025024414 89.49800109863281,-65.0510025024414 C91.58499908447266,-65.0510025024414 93.2750015258789,-63.35900115966797 93.2750015258789,-61.27299880981445 C93.2750015258789,-61.27299880981445 93.2750015258789,61.27299880981445 93.2750015258789,61.27299880981445 C93.2750015258789,63.36000061035156 91.58499908447266,65.0510025024414 89.49800109863281,65.0510025024414z"></path></g><g opacity="1" transform="matrix(1,0,0,1,93.5260009765625,45.946998596191406)"><path fill="rgb(171,193,249)" fill-opacity="1" d=" M93.2760009765625,15.053000450134277 C93.2760009765625,15.053000450134277 -93.2760009765625,15.053000450134277 -93.2760009765625,15.053000450134277 C-93.2760009765625,15.053000450134277 -93.2760009765625,-15.053000450134277 -93.2760009765625,-15.053000450134277 C-93.2760009765625,-15.053000450134277 93.2760009765625,-15.053000450134277 93.2760009765625,-15.053000450134277 C93.2760009765625,-15.053000450134277 93.2760009765625,15.053000450134277 93.2760009765625,15.053000450134277z"></path></g></g><g transform="matrix(1,0,0,1,794.18701171875,219.19700622558594)" opacity="1" style="display: block;"><g opacity="1" transform="matrix(1,0,0,1,0,0)"><g opacity="1" transform="matrix(1,0,0,1,135.73199462890625,236.08399963378906)"><path fill="rgb(238,243,251)" fill-opacity="1" d=" M113.57099914550781,-17.024999618530273 C113.57099914550781,-17.024999618530273 -113.57099914550781,-17.024999618530273 -113.57099914550781,-17.024999618530273 C-113.57099914550781,-17.024999618530273 -113.57099914550781,17.024999618530273 -113.57099914550781,17.024999618530273 C-113.57099914550781,17.024999618530273 113.57099914550781,17.024999618530273 113.57099914550781,17.024999618530273 C113.57099914550781,17.024999618530273 113.57099914550781,-17.024999618530273 113.57099914550781,-17.024999618530273z"></path></g><g opacity="1" transform="matrix(1,0,0,1,135.73300170898438,228.197998046875)"><path fill="rgb(255,255,255)" fill-opacity="1" d=" M29.475000381469727,4.658999919891357 C29.475000381469727,4.658999919891357 -29.475000381469727,4.658999919891357 -29.475000381469727,4.658999919891357 C-29.475000381469727,4.658999919891357 -29.475000381469727,-4.658999919891357 -29.475000381469727,-4.658999919891357 C-29.475000381469727,-4.658999919891357 29.475000381469727,-4.658999919891357 29.475000381469727,-4.658999919891357 C29.475000381469727,-4.658999919891357 29.475000381469727,4.658999919891357 29.475000381469727,4.658999919891357z"></path></g><g opacity="1" transform="matrix(1,0,0,1,135.73199462890625,242.718994140625)"><path fill="rgb(255,255,255)" fill-opacity="1" d=" M34.31399917602539,4.659999847412109 C34.31399917602539,4.659999847412109 -34.31399917602539,4.659999847412109 -34.31399917602539,4.659999847412109 C-34.31399917602539,4.659999847412109 -34.31399917602539,-4.659999847412109 -34.31399917602539,-4.659999847412109 C-34.31399917602539,-4.659999847412109 34.31399917602539,-4.659999847412109 34.31399917602539,-4.659999847412109 C34.31399917602539,-4.659999847412109 34.31399917602539,4.659999847412109 34.31399917602539,4.659999847412109z"></path></g></g><g opacity="1" transform="matrix(1,0,0,1,0,0)"><g opacity="1" transform="matrix(1,0,0,1,51.05400085449219,95.81099700927734)"><path fill="rgb(209,219,246)" fill-opacity="1" d=" M22.57900047302246,3.628999948501587 C22.57900047302246,3.628999948501587 -22.57900047302246,3.628999948501587 -22.57900047302246,3.628999948501587 C-22.57900047302246,3.628999948501587 -22.57900047302246,-3.628999948501587 -22.57900047302246,-3.628999948501587 C-22.57900047302246,-3.628999948501587 22.57900047302246,-3.628999948501587 22.57900047302246,-3.628999948501587 C22.57900047302246,-3.628999948501587 22.57900047302246,3.628999948501587 22.57900047302246,3.628999948501587z"></path></g><g opacity="1" transform="matrix(1,0,0,1,51.05400085449219,149.43800354003906)"><path fill="rgb(238,243,251)" fill-opacity="1" d=" M18.54800033569336,-49.99800109863281 C18.54800033569336,-49.99800109863281 -18.54800033569336,-49.99800109863281 -18.54800033569336,-49.99800109863281 C-18.54800033569336,-49.99800109863281 -18.54800033569336,49.99800109863281 -18.54800033569336,49.99800109863281 C-18.54800033569336,49.99800109863281 18.54800033569336,49.99800109863281 18.54800033569336,49.99800109863281 C18.54800033569336,49.99800109863281 18.54800033569336,-49.99800109863281 18.54800033569336,-49.99800109863281z"></path></g><g opacity="1" transform="matrix(1,0,0,1,51.05400085449219,209.2480010986328)"><path fill="rgb(209,219,246)" fill-opacity="1" d=" M22.57900047302246,9.810999870300293 C22.57900047302246,9.810999870300293 -22.57900047302246,9.810999870300293 -22.57900047302246,9.810999870300293 C-22.57900047302246,9.810999870300293 -22.57900047302246,-9.810999870300293 -22.57900047302246,-9.810999870300293 C-22.57900047302246,-9.810999870300293 22.57900047302246,-9.810999870300293 22.57900047302246,-9.810999870300293 C22.57900047302246,-9.810999870300293 22.57900047302246,9.810999870300293 22.57900047302246,9.810999870300293z"></path></g></g><g opacity="1" transform="matrix(1,0,0,1,0,0)"><g opacity="1" transform="matrix(1,0,0,1,107.50599670410156,95.81099700927734)"><path fill="rgb(209,219,246)" fill-opacity="1" d=" M22.57900047302246,3.628999948501587 C22.57900047302246,3.628999948501587 -22.57900047302246,3.628999948501587 -22.57900047302246,3.628999948501587 C-22.57900047302246,3.628999948501587 -22.57900047302246,-3.628999948501587 -22.57900047302246,-3.628999948501587 C-22.57900047302246,-3.628999948501587 22.57900047302246,-3.628999948501587 22.57900047302246,-3.628999948501587 C22.57900047302246,-3.628999948501587 22.57900047302246,3.628999948501587 22.57900047302246,3.628999948501587z"></path></g><g opacity="1" transform="matrix(1,0,0,1,107.50599670410156,149.43800354003906)"><path fill="rgb(238,243,251)" fill-opacity="1" d=" M18.547000885009766,-49.99800109863281 C18.547000885009766,-49.99800109863281 -18.547000885009766,-49.99800109863281 -18.547000885009766,-49.99800109863281 C-18.547000885009766,-49.99800109863281 -18.547000885009766,49.99800109863281 -18.547000885009766,49.99800109863281 C-18.547000885009766,49.99800109863281 18.547000885009766,49.99800109863281 18.547000885009766,49.99800109863281 C18.547000885009766,49.99800109863281 18.547000885009766,-49.99800109863281 18.547000885009766,-49.99800109863281z"></path></g><g opacity="1" transform="matrix(1,0,0,1,107.50599670410156,209.2480010986328)"><path fill="rgb(209,219,246)" fill-opacity="1" d=" M22.57900047302246,9.810999870300293 C22.57900047302246,9.810999870300293 -22.57900047302246,9.810999870300293 -22.57900047302246,9.810999870300293 C-22.57900047302246,9.810999870300293 -22.57900047302246,-9.810999870300293 -22.57900047302246,-9.810999870300293 C-22.57900047302246,-9.810999870300293 22.57900047302246,-9.810999870300293 22.57900047302246,-9.810999870300293 C22.57900047302246,-9.810999870300293 22.57900047302246,9.810999870300293 22.57900047302246,9.810999870300293z"></path></g></g><g opacity="1" transform="matrix(1,0,0,1,0,0)"><g opacity="1" transform="matrix(1,0,0,1,163.95899963378906,95.81099700927734)"><path fill="rgb(209,219,246)" fill-opacity="1" d=" M22.579999923706055,3.628999948501587 C22.579999923706055,3.628999948501587 -22.579999923706055,3.628999948501587 -22.579999923706055,3.628999948501587 C-22.579999923706055,3.628999948501587 -22.579999923706055,-3.628999948501587 -22.579999923706055,-3.628999948501587 C-22.579999923706055,-3.628999948501587 22.579999923706055,-3.628999948501587 22.579999923706055,-3.628999948501587 C22.579999923706055,-3.628999948501587 22.579999923706055,3.628999948501587 22.579999923706055,3.628999948501587z"></path></g><g opacity="1" transform="matrix(1,0,0,1,163.95799255371094,149.43800354003906)"><path fill="rgb(238,243,251)" fill-opacity="1" d=" M18.54800033569336,-49.99800109863281 C18.54800033569336,-49.99800109863281 -18.54800033569336,-49.99800109863281 -18.54800033569336,-49.99800109863281 C-18.54800033569336,-49.99800109863281 -18.54800033569336,49.99800109863281 -18.54800033569336,49.99800109863281 C-18.54800033569336,49.99800109863281 18.54800033569336,49.99800109863281 18.54800033569336,49.99800109863281 C18.54800033569336,49.99800109863281 18.54800033569336,-49.99800109863281 18.54800033569336,-49.99800109863281z"></path></g><g opacity="1" transform="matrix(1,0,0,1,163.95899963378906,209.2480010986328)"><path fill="rgb(209,219,246)" fill-opacity="1" d=" M22.579999923706055,9.810999870300293 C22.579999923706055,9.810999870300293 -22.579999923706055,9.810999870300293 -22.579999923706055,9.810999870300293 C-22.579999923706055,9.810999870300293 -22.579999923706055,-9.810999870300293 -22.579999923706055,-9.810999870300293 C-22.579999923706055,-9.810999870300293 22.579999923706055,-9.810999870300293 22.579999923706055,-9.810999870300293 C22.579999923706055,-9.810999870300293 22.579999923706055,9.810999870300293 22.579999923706055,9.810999870300293z"></path></g></g><g opacity="1" transform="matrix(1,0,0,1,0,0)"><g opacity="1" transform="matrix(1,0,0,1,220.41099548339844,95.81099700927734)"><path fill="rgb(209,219,246)" fill-opacity="1" d=" M22.579999923706055,3.628999948501587 C22.579999923706055,3.628999948501587 -22.579999923706055,3.628999948501587 -22.579999923706055,3.628999948501587 C-22.579999923706055,3.628999948501587 -22.579999923706055,-3.628999948501587 -22.579999923706055,-3.628999948501587 C-22.579999923706055,-3.628999948501587 22.579999923706055,-3.628999948501587 22.579999923706055,-3.628999948501587 C22.579999923706055,-3.628999948501587 22.579999923706055,3.628999948501587 22.579999923706055,3.628999948501587z"></path></g><g opacity="1" transform="matrix(1,0,0,1,220.41099548339844,149.43800354003906)"><path fill="rgb(238,243,251)" fill-opacity="1" d=" M18.54800033569336,-49.99800109863281 C18.54800033569336,-49.99800109863281 -18.54800033569336,-49.99800109863281 -18.54800033569336,-49.99800109863281 C-18.54800033569336,-49.99800109863281 -18.54800033569336,49.99800109863281 -18.54800033569336,49.99800109863281 C-18.54800033569336,49.99800109863281 18.54800033569336,49.99800109863281 18.54800033569336,49.99800109863281 C18.54800033569336,49.99800109863281 18.54800033569336,-49.99800109863281 18.54800033569336,-49.99800109863281z"></path></g><g opacity="1" transform="matrix(1,0,0,1,220.41099548339844,209.2480010986328)"><path fill="rgb(209,219,246)" fill-opacity="1" d=" M22.579999923706055,9.810999870300293 C22.579999923706055,9.810999870300293 -22.579999923706055,9.810999870300293 -22.579999923706055,9.810999870300293 C-22.579999923706055,9.810999870300293 -22.579999923706055,-9.810999870300293 -22.579999923706055,-9.810999870300293 C-22.579999923706055,-9.810999870300293 22.579999923706055,-9.810999870300293 22.579999923706055,-9.810999870300293 C22.579999923706055,-9.810999870300293 22.579999923706055,9.810999870300293 22.579999923706055,9.810999870300293z"></path></g></g><g opacity="1" transform="matrix(1,0,0,1,0,0)"><g opacity="1" transform="matrix(1,0,0,1,135.73199462890625,85.3280029296875)"><path fill="rgb(238,243,251)" fill-opacity="1" d=" M113.57099914550781,-6.854000091552734 C113.57099914550781,-6.854000091552734 -113.57099914550781,-6.854000091552734 -113.57099914550781,-6.854000091552734 C-113.57099914550781,-6.854000091552734 -113.57099914550781,6.854000091552734 -113.57099914550781,6.854000091552734 C-113.57099914550781,6.854000091552734 113.57099914550781,6.854000091552734 113.57099914550781,6.854000091552734 C113.57099914550781,6.854000091552734 113.57099914550781,-6.854000091552734 113.57099914550781,-6.854000091552734z"></path></g><g opacity="1" transform="matrix(1,0,0,1,135.73199462890625,79.59300231933594)"><path fill="rgb(209,219,246)" fill-opacity="1" d=" M113.57099914550781,-1.1200000047683716 C113.57099914550781,-1.1200000047683716 -113.57099914550781,-1.1200000047683716 -113.57099914550781,-1.1200000047683716 C-113.57099914550781,-1.1200000047683716 -113.57099914550781,1.1200000047683716 -113.57099914550781,1.1200000047683716 C-113.57099914550781,1.1200000047683716 113.57099914550781,1.1200000047683716 113.57099914550781,1.1200000047683716 C113.57099914550781,1.1200000047683716 113.57099914550781,-1.1200000047683716 113.57099914550781,-1.1200000047683716z"></path></g></g><g opacity="1" transform="matrix(1,0,0,1,135.73199462890625,39.36199951171875)"><path fill="rgb(238,243,251)" fill-opacity="1" d=" M135.48300170898438,39.111000061035156 C135.48300170898438,39.111000061035156 -135.48300170898438,39.111000061035156 -135.48300170898438,39.111000061035156 C-135.48300170898438,39.111000061035156 0.0010000000474974513,-39.111000061035156 0.0010000000474974513,-39.111000061035156 C0.0010000000474974513,-39.111000061035156 135.48300170898438,39.111000061035156 135.48300170898438,39.111000061035156z"></path></g><g opacity="1" transform="matrix(1,0,0,1,0,0)"><g opacity="1" transform="matrix(1,0,0,1,135.73300170898438,39.361000061035156)"><path fill="rgb(209,219,246)" fill-opacity="1" d=" M-68.54199981689453,19.785999298095703 C-68.54199981689453,19.785999298095703 0,-19.785999298095703 0,-19.785999298095703 C0,-19.785999298095703 68.54199981689453,19.785999298095703 68.54199981689453,19.785999298095703 C68.54199981689453,19.785999298095703 -68.54199981689453,19.785999298095703 -68.54199981689453,19.785999298095703z"></path></g><g opacity="1" transform="matrix(1,0,0,1,135.73199462890625,42.72200012207031)"><path fill="rgb(238,243,251)" fill-opacity="1" d=" M9.678000450134277,-0.0010000000474974513 C9.678000450134277,-5.3460001945495605 5.34499979019165,-9.678000450134277 0,-9.678000450134277 C-5.34499979019165,-9.678000450134277 -9.678000450134277,-5.3460001945495605 -9.678000450134277,-0.0010000000474974513 C-9.678000450134277,5.34499979019165 -5.34499979019165,9.678000450134277 0,9.678000450134277 C5.34499979019165,9.678000450134277 9.678000450134277,5.34499979019165 9.678000450134277,-0.0010000000474974513z"></path></g></g></g><g transform="matrix(1,0,0,1,596.612060546875,67.41099548339844)" opacity="1" style="display: block;"><g opacity="1" transform="matrix(1,0,0,1,83.04299926757812,109.0270004272461)"><path fill="rgb(209,219,246)" fill-opacity="1" d=" M82.79299926757812,-57.882999420166016 C82.79299926757812,-57.882999420166016 -82.79299926757812,-57.882999420166016 -82.79299926757812,-57.882999420166016 C-82.79299926757812,-57.882999420166016 -82.79299926757812,57.882999420166016 -82.79299926757812,57.882999420166016 C-82.79299926757812,57.882999420166016 82.79299926757812,57.882999420166016 82.79299926757812,57.882999420166016 C82.79299926757812,57.882999420166016 82.79299926757812,-57.882999420166016 82.79299926757812,-57.882999420166016z"></path></g><g opacity="1" transform="matrix(1,0,0,1,83.04299926757812,24.55500030517578)"><path fill="rgb(49,80,166)" fill-opacity="1" d=" M82.79299926757812,24.30500030517578 C82.79299926757812,24.30500030517578 -82.79299926757812,24.30500030517578 -82.79299926757812,24.30500030517578 C-82.79299926757812,24.30500030517578 -82.79299926757812,-24.30500030517578 -82.79299926757812,-24.30500030517578 C-82.79299926757812,-24.30500030517578 82.79299926757812,-24.30500030517578 82.79299926757812,-24.30500030517578 C82.79299926757812,-24.30500030517578 82.79299926757812,24.30500030517578 82.79299926757812,24.30500030517578z"></path></g><g opacity="1" transform="matrix(1,0,0,1,83.04299926757812,50.000999450683594)"><path fill="rgb(129,148,202)" fill-opacity="1" d=" M82.79299926757812,-1.1419999599456787 C82.79299926757812,-1.1419999599456787 -82.79299926757812,-1.1419999599456787 -82.79299926757812,-1.1419999599456787 C-82.79299926757812,-1.1419999599456787 -82.79299926757812,1.1419999599456787 -82.79299926757812,1.1419999599456787 C-82.79299926757812,1.1419999599456787 82.79299926757812,1.1419999599456787 82.79299926757812,1.1419999599456787 C82.79299926757812,1.1419999599456787 82.79299926757812,-1.1419999599456787 82.79299926757812,-1.1419999599456787z"></path></g><g opacity="1" transform="matrix(1,0,0,1,83.04299926757812,26.974000930786133)"><path fill="rgb(81,123,241)" fill-opacity="1" d=" M31.7189998626709,7.86299991607666 C31.7189998626709,7.86299991607666 -31.7189998626709,7.86299991607666 -31.7189998626709,7.86299991607666 C-31.7189998626709,7.86299991607666 -31.7189998626709,-7.86299991607666 -31.7189998626709,-7.86299991607666 C-31.7189998626709,-7.86299991607666 31.7189998626709,-7.86299991607666 31.7189998626709,-7.86299991607666 C31.7189998626709,-7.86299991607666 31.7189998626709,7.86299991607666 31.7189998626709,7.86299991607666z"></path></g><g opacity="1" transform="matrix(1,0,0,1,30.155000686645508,26.974000930786133)"><path fill="rgb(255,144,97)" fill-opacity="1" d=" M4.61299991607666,7.86299991607666 C4.61299991607666,7.86299991607666 -4.61299991607666,7.86299991607666 -4.61299991607666,7.86299991607666 C-6.4079999923706055,7.86299991607666 -7.86299991607666,6.4079999923706055 -7.86299991607666,4.61299991607666 C-7.86299991607666,4.61299991607666 -7.86299991607666,-4.61299991607666 -7.86299991607666,-4.61299991607666 C-7.86299991607666,-6.4079999923706055 -6.4079999923706055,-7.86299991607666 -4.61299991607666,-7.86299991607666 C-4.61299991607666,-7.86299991607666 4.61299991607666,-7.86299991607666 4.61299991607666,-7.86299991607666 C6.4079999923706055,-7.86299991607666 7.86299991607666,-6.4079999923706055 7.86299991607666,-4.61299991607666 C7.86299991607666,-4.61299991607666 7.86299991607666,4.61299991607666 7.86299991607666,4.61299991607666 C7.86299991607666,6.4079999923706055 6.4079999923706055,7.86299991607666 4.61299991607666,7.86299991607666z"></path></g><g opacity="1" transform="matrix(1,0,0,1,137.31900024414062,26.974000930786133)"><path fill="rgb(255,144,97)" fill-opacity="1" d=" M4.61299991607666,7.86299991607666 C4.61299991607666,7.86299991607666 -4.61299991607666,7.86299991607666 -4.61299991607666,7.86299991607666 C-6.4079999923706055,7.86299991607666 -7.86299991607666,6.4079999923706055 -7.86299991607666,4.61299991607666 C-7.86299991607666,4.61299991607666 -7.86299991607666,-4.61299991607666 -7.86299991607666,-4.61299991607666 C-7.86299991607666,-6.4079999923706055 -6.4079999923706055,-7.86299991607666 -4.61299991607666,-7.86299991607666 C-4.61299991607666,-7.86299991607666 4.61299991607666,-7.86299991607666 4.61299991607666,-7.86299991607666 C6.4079999923706055,-7.86299991607666 7.86299991607666,-6.4079999923706055 7.86299991607666,-4.61299991607666 C7.86299991607666,-4.61299991607666 7.86299991607666,4.61299991607666 7.86299991607666,4.61299991607666 C7.86299991607666,6.4079999923706055 6.4079999923706055,7.86299991607666 4.61299991607666,7.86299991607666z"></path></g><g opacity="1" transform="matrix(1,0,0,1,37.6150016784668,85.10299682617188)"><path fill="rgb(255,255,255)" fill-opacity="1" d=" M15.322999954223633,15.321999549865723 C15.322999954223633,15.321999549865723 -15.322999954223633,15.321999549865723 -15.322999954223633,15.321999549865723 C-15.322999954223633,15.321999549865723 -15.322999954223633,-15.321999549865723 -15.322999954223633,-15.321999549865723 C-15.322999954223633,-15.321999549865723 15.322999954223633,-15.321999549865723 15.322999954223633,-15.321999549865723 C15.322999954223633,-15.321999549865723 15.322999954223633,15.321999549865723 15.322999954223633,15.321999549865723z"></path></g><g opacity="1" transform="matrix(1,0,0,1,83.04299926757812,85.10299682617188)"><path fill="rgb(255,255,255)" fill-opacity="1" d=" M15.321999549865723,15.321999549865723 C15.321999549865723,15.321999549865723 -15.321999549865723,15.321999549865723 -15.321999549865723,15.321999549865723 C-15.321999549865723,15.321999549865723 -15.321999549865723,-15.321999549865723 -15.321999549865723,-15.321999549865723 C-15.321999549865723,-15.321999549865723 15.321999549865723,-15.321999549865723 15.321999549865723,-15.321999549865723 C15.321999549865723,-15.321999549865723 15.321999549865723,15.321999549865723 15.321999549865723,15.321999549865723z"></path></g><g opacity="1" transform="matrix(1,0,0,1,128.4709930419922,85.10299682617188)"><path fill="rgb(255,255,255)" fill-opacity="1" d=" M15.321999549865723,15.321999549865723 C15.321999549865723,15.321999549865723 -15.321999549865723,15.321999549865723 -15.321999549865723,15.321999549865723 C-15.321999549865723,15.321999549865723 -15.321999549865723,-15.321999549865723 -15.321999549865723,-15.321999549865723 C-15.321999549865723,-15.321999549865723 15.321999549865723,-15.321999549865723 15.321999549865723,-15.321999549865723 C15.321999549865723,-15.321999549865723 15.321999549865723,15.321999549865723 15.321999549865723,15.321999549865723z"></path></g><g opacity="1" transform="matrix(1,0,0,1,37.6150016784668,129.99400329589844)"><path fill="rgb(255,255,255)" fill-opacity="1" d=" M15.322999954223633,15.321999549865723 C15.322999954223633,15.321999549865723 -15.322999954223633,15.321999549865723 -15.322999954223633,15.321999549865723 C-15.322999954223633,15.321999549865723 -15.322999954223633,-15.321999549865723 -15.322999954223633,-15.321999549865723 C-15.322999954223633,-15.321999549865723 15.322999954223633,-15.321999549865723 15.322999954223633,-15.321999549865723 C15.322999954223633,-15.321999549865723 15.322999954223633,15.321999549865723 15.322999954223633,15.321999549865723z"></path></g><g opacity="1" transform="matrix(1,0,0,1,83.04299926757812,129.99400329589844)"><path fill="rgb(255,255,255)" fill-opacity="1" d=" M15.321999549865723,15.321999549865723 C15.321999549865723,15.321999549865723 -15.321999549865723,15.321999549865723 -15.321999549865723,15.321999549865723 C-15.321999549865723,15.321999549865723 -15.321999549865723,-15.321999549865723 -15.321999549865723,-15.321999549865723 C-15.321999549865723,-15.321999549865723 15.321999549865723,-15.321999549865723 15.321999549865723,-15.321999549865723 C15.321999549865723,-15.321999549865723 15.321999549865723,15.321999549865723 15.321999549865723,15.321999549865723z"></path></g><g opacity="1" transform="matrix(1,0,0,1,128.4709930419922,129.99400329589844)"><path fill="rgb(255,255,255)" fill-opacity="1" d=" M15.321999549865723,15.321999549865723 C15.321999549865723,15.321999549865723 -15.321999549865723,15.321999549865723 -15.321999549865723,15.321999549865723 C-15.321999549865723,15.321999549865723 -15.321999549865723,-15.321999549865723 -15.321999549865723,-15.321999549865723 C-15.321999549865723,-15.321999549865723 15.321999549865723,-15.321999549865723 15.321999549865723,-15.321999549865723 C15.321999549865723,-15.321999549865723 15.321999549865723,15.321999549865723 15.321999549865723,15.321999549865723z"></path></g></g><g transform="matrix(0.9999998807907104,-0.00045753768063150346,0.00045753768063150346,0.9999998807907104,191.05029296875,132.66671752929688)" opacity="1" style="display: block;"><g opacity="1" transform="matrix(1,0,0,1,54.01100158691406,54.012001037597656)"><path fill="rgb(171,193,249)" fill-opacity="1" d=" M53.76100158691406,12.743000030517578 C53.76100158691406,12.743000030517578 53.76100158691406,-12.744000434875488 53.76100158691406,-12.744000434875488 C53.76100158691406,-12.744000434875488 41.08700180053711,-12.744000434875488 41.08700180053711,-12.744000434875488 C40.29999923706055,-15.284000396728516 39.268001556396484,-17.711999893188477 38.047000885009766,-20.025999069213867 C38.047000885009766,-20.025999069213867 47.0260009765625,-29.003000259399414 47.0260009765625,-29.003000259399414 C47.0260009765625,-29.003000259399414 29.003999710083008,-47.0260009765625 29.003999710083008,-47.0260009765625 C29.003999710083008,-47.0260009765625 20.024999618530273,-38.047000885009766 20.024999618530273,-38.047000885009766 C17.711000442504883,-39.268001556396484 15.282999992370605,-40.30099868774414 12.743000030517578,-41.0880012512207 C12.743000030517578,-41.0880012512207 12.743000030517578,-53.76100158691406 12.743000030517578,-53.76100158691406 C12.743000030517578,-53.76100158691406 -12.744000434875488,-53.76100158691406 -12.744000434875488,-53.76100158691406 C-12.744000434875488,-53.76100158691406 -12.744000434875488,-41.0880012512207 -12.744000434875488,-41.0880012512207 C-15.282999992370605,-40.30099868774414 -17.711000442504883,-39.268001556396484 -20.024999618530273,-38.047000885009766 C-20.024999618530273,-38.047000885009766 -29.003999710083008,-47.0260009765625 -29.003999710083008,-47.0260009765625 C-29.003999710083008,-47.0260009765625 -47.0260009765625,-29.003000259399414 -47.0260009765625,-29.003000259399414 C-47.0260009765625,-29.003000259399414 -38.047000885009766,-20.025999069213867 -38.047000885009766,-20.025999069213867 C-39.268001556396484,-17.711999893188477 -40.30099868774414,-15.284000396728516 -41.08700180053711,-12.744000434875488 C-41.08700180053711,-12.744000434875488 -53.76100158691406,-12.744000434875488 -53.76100158691406,-12.744000434875488 C-53.76100158691406,-12.744000434875488 -53.76100158691406,12.743000030517578 -53.76100158691406,12.743000030517578 C-53.76100158691406,12.743000030517578 -41.08700180053711,12.743000030517578 -41.08700180053711,12.743000030517578 C-40.30099868774414,15.281999588012695 -39.268001556396484,17.709999084472656 -38.047000885009766,20.02400016784668 C-38.047000885009766,20.02400016784668 -47.0260009765625,29.003000259399414 -47.0260009765625,29.003000259399414 C-47.0260009765625,29.003000259399414 -29.003999710083008,47.0260009765625 -29.003999710083008,47.0260009765625 C-29.003999710083008,47.0260009765625 -20.024999618530273,38.047000885009766 -20.024999618530273,38.047000885009766 C-17.711000442504883,39.268001556396484 -15.282999992370605,40.301998138427734 -12.744000434875488,41.0880012512207 C-12.744000434875488,41.0880012512207 -12.744000434875488,53.76100158691406 -12.744000434875488,53.76100158691406 C-12.744000434875488,53.76100158691406 12.743000030517578,53.76100158691406 12.743000030517578,53.76100158691406 C12.743000030517578,53.76100158691406 12.743000030517578,41.0880012512207 12.743000030517578,41.0880012512207 C15.282999992370605,40.301998138427734 17.711000442504883,39.268001556396484 20.024999618530273,38.047000885009766 C20.024999618530273,38.047000885009766 29.003999710083008,47.0260009765625 29.003999710083008,47.0260009765625 C29.003999710083008,47.0260009765625 47.0260009765625,29.003000259399414 47.0260009765625,29.003000259399414 C47.0260009765625,29.003000259399414 38.047000885009766,20.02400016784668 38.047000885009766,20.02400016784668 C39.268001556396484,17.709999084472656 40.29999923706055,15.281999588012695 41.08700180053711,12.743000030517578 C41.08700180053711,12.743000030517578 53.76100158691406,12.743000030517578 53.76100158691406,12.743000030517578z M0,21.104999542236328 C-11.656999588012695,21.104999542236328 -21.106000900268555,11.656000137329102 -21.106000900268555,0 C-21.106000900268555,-11.656999588012695 -11.656999588012695,-21.106000900268555 0,-21.106000900268555 C11.656000137329102,-21.106000900268555 21.106000900268555,-11.656999588012695 21.106000900268555,0 C21.106000900268555,11.656000137329102 11.656000137329102,21.104999542236328 0,21.104999542236328z"></path></g></g><g transform="matrix(1,0,0,1,286.77001953125,452.34197998046875)" opacity="1" style="display: block;"><g opacity="1" transform="matrix(1,0,0,1,75.15699768066406,62.255001068115234)"><path fill="rgb(209,219,246)" fill-opacity="1" d=" M74.90699768066406,62.005001068115234 C74.90699768066406,62.005001068115234 -74.90699768066406,62.005001068115234 -74.90699768066406,62.005001068115234 C-74.90699768066406,62.005001068115234 -74.90699768066406,-62.005001068115234 -74.90699768066406,-62.005001068115234 C-74.90699768066406,-62.005001068115234 74.90699768066406,-62.005001068115234 74.90699768066406,-62.005001068115234 C74.90699768066406,-62.005001068115234 74.90699768066406,62.005001068115234 74.90699768066406,62.005001068115234z"></path></g><g opacity="1" transform="matrix(1,0,0,1,74.61900329589844,28.34000015258789)"><path fill="rgb(255,255,255)" fill-opacity="1" d=" M51.073001861572266,5.1519999504089355 C51.073001861572266,5.1519999504089355 -51.073001861572266,5.1519999504089355 -51.073001861572266,5.1519999504089355 C-51.073001861572266,5.1519999504089355 -51.073001861572266,-5.1519999504089355 -51.073001861572266,-5.1519999504089355 C-51.073001861572266,-5.1519999504089355 51.073001861572266,-5.1519999504089355 51.073001861572266,-5.1519999504089355 C51.073001861572266,-5.1519999504089355 51.073001861572266,5.1519999504089355 51.073001861572266,5.1519999504089355z"></path></g><g opacity="1" transform="matrix(1,0,0,1,74.61900329589844,63.1510009765625)"><path fill="rgb(255,255,255)" fill-opacity="1" d=" M51.073001861572266,5.1519999504089355 C51.073001861572266,5.1519999504089355 -51.073001861572266,5.1519999504089355 -51.073001861572266,5.1519999504089355 C-51.073001861572266,5.1519999504089355 -51.073001861572266,-5.1519999504089355 -51.073001861572266,-5.1519999504089355 C-51.073001861572266,-5.1519999504089355 51.073001861572266,-5.1519999504089355 51.073001861572266,-5.1519999504089355 C51.073001861572266,-5.1519999504089355 51.073001861572266,5.1519999504089355 51.073001861572266,5.1519999504089355z"></path></g><g opacity="1" transform="matrix(1,0,0,1,56.54199981689453,97.96099853515625)"><path fill="rgb(255,255,255)" fill-opacity="1" d=" M32.99599838256836,5.1519999504089355 C32.99599838256836,5.1519999504089355 -32.99599838256836,5.1519999504089355 -32.99599838256836,5.1519999504089355 C-32.99599838256836,5.1519999504089355 -32.99599838256836,-5.1519999504089355 -32.99599838256836,-5.1519999504089355 C-32.99599838256836,-5.1519999504089355 32.99599838256836,-5.1519999504089355 32.99599838256836,-5.1519999504089355 C32.99599838256836,-5.1519999504089355 32.99599838256836,5.1519999504089355 32.99599838256836,5.1519999504089355z"></path></g><g opacity="1" transform="matrix(1,0,0,1,0,0)"><g opacity="1" transform="matrix(1,0,0,1,150.06399536132812,125.33499908447266)"><path fill="rgb(81,123,241)" fill-opacity="1" d=" M35.124000549316406,0 C35.124000549316406,-19.398000717163086 19.398000717163086,-35.124000549316406 0,-35.124000549316406 C-19.398000717163086,-35.124000549316406 -35.124000549316406,-19.398000717163086 -35.124000549316406,0 C-35.124000549316406,19.398000717163086 -19.398000717163086,35.124000549316406 0,35.124000549316406 C19.398000717163086,35.124000549316406 35.124000549316406,19.398000717163086 35.124000549316406,0z"></path></g><g opacity="1" transform="matrix(1,0,0,1,151.13900756835938,125.33499908447266)"><path fill="rgb(255,255,255)" fill-opacity="1" d=" M-4.8379998207092285,14.51200008392334 C-4.8379998207092285,14.51200008392334 -19.052000045776367,0.29600000381469727 -19.052000045776367,0.29600000381469727 C-19.052000045776367,0.29600000381469727 -13.920999526977539,-4.835000038146973 -13.920999526977539,-4.835000038146973 C-13.920999526977539,-4.835000038146973 -4.8379998207092285,4.249000072479248 -4.8379998207092285,4.249000072479248 C-4.8379998207092285,4.249000072479248 13.920999526977539,-14.51200008392334 13.920999526977539,-14.51200008392334 C13.920999526977539,-14.51200008392334 19.052000045776367,-9.380999565124512 19.052000045776367,-9.380999565124512 C19.052000045776367,-9.380999565124512 -4.8379998207092285,14.51200008392334 -4.8379998207092285,14.51200008392334z"></path></g></g></g></g></svg>