<svg xmlns="http://www.w3.org/2000/svg" version="1.1" xmlns:xlink="http://www.w3.org/1999/xlink" xmlns:svgjs="http://svgjs.dev/svgjs" width="700" height="900" preserveAspectRatio="none" viewBox="0 0 700 900">
    <g mask="url(&quot;#SvgjsMask1322&quot;)" fill="none">
        <rect width="700" height="900" x="0" y="0" fill="#0d1b2a"></rect>
        <path d="M0,272.94C51.611,268.213,101.431,253.68,144.582,224.974C187.268,196.577,216.491,154.816,243.277,111.101C273.358,62.01,313.309,12.931,309.722,-44.531C306.067,-103.087,269.987,-157.582,224.213,-194.282C181.632,-228.422,122.791,-224.81,69.604,-237.048C20.061,-248.447,-29.405,-280.372,-77.425,-263.684C-125.174,-247.09,-136.841,-184.695,-175.331,-151.926C-223.918,-110.56,-306.608,-106.499,-331.207,-47.62C-355.593,10.749,-326.037,79.589,-295.111,134.772C-265.568,187.486,-217.393,227.491,-162.666,253.114C-112.173,276.754,-55.521,278.025,0,272.94" fill="#1b263b"></path>
        <path d="M700 1182.66C762.057 1188.784 826.126 1210.138 883.267 1185.1689999999999 943.638 1158.789 1001.114 1108.557 1016.2950000000001 1044.4470000000001 1031.222 981.41 982.9110000000001 923.124 959.635 862.67 941.688 816.058 917.311 775.546 895.466 730.6279999999999 864.557 667.071 867.115 576.761 804.579 543.836 743.753 511.812 669.004 551.779 605.431 577.928 546.83 602.0319999999999 501.358 644.5219999999999 454.938 687.653 402.923 735.983 319.502 774.082 317.924 845.066 316.306 917.851 405.08 956.186 447.655 1015.242 480.192 1060.373 492.231 1120.396 538.593 1151.154 585.216 1182.086 644.319 1177.165 700 1182.66" fill="#415a77"></path>
    </g>
    <defs>
        <mask id="SvgjsMask1322">
            <rect width="700" height="900" fill="#ffffff"></rect>
        </mask>
    </defs>
</svg>

