<?xml version="1.0" encoding="UTF-8" standalone="no"?>
<svg
   xmlns:dc="http://purl.org/dc/elements/1.1/"
   xmlns:cc="http://creativecommons.org/ns#"
   xmlns:rdf="http://www.w3.org/1999/02/22-rdf-syntax-ns#"
   xmlns:svg="http://www.w3.org/2000/svg"
   xmlns="http://www.w3.org/2000/svg"
   xmlns:sodipodi="http://sodipodi.sourceforge.net/DTD/sodipodi-0.dtd"
   xmlns:inkscape="http://www.inkscape.org/namespaces/inkscape"
   width="120"
   height="120"
   fill="none"
   version="1.1"
   id="svg102"
   sodipodi:docname="sbp_icon.svg"
   inkscape:version="0.92.3 (2405546, 2018-03-11)">
  <metadata
     id="metadata108">
    <rdf:RDF>
      <cc:Work
         rdf:about="">
        <dc:format>image/svg+xml</dc:format>
        <dc:type
           rdf:resource="http://purl.org/dc/dcmitype/StillImage" />
      </cc:Work>
    </rdf:RDF>
  </metadata>
  <defs
     id="defs106" />
  <sodipodi:namedview
     pagecolor="#ffffff"
     bordercolor="#666666"
     borderopacity="1"
     objecttolerance="10"
     gridtolerance="10"
     guidetolerance="10"
     inkscape:pageopacity="0"
     inkscape:pageshadow="2"
     inkscape:window-width="1366"
     inkscape:window-height="705"
     id="namedview104"
     showgrid="false"
     inkscape:zoom="3.5606695"
     inkscape:cx="60"
     inkscape:cy="60"
     inkscape:window-x="-8"
     inkscape:window-y="-8"
     inkscape:window-maximized="1"
     inkscape:current-layer="svg102" />
  <path
     d="M0 26.12l14.532 25.975v15.844L.017 93.863 0 26.12z"
     fill="#5B57A2"
     id="path66" />
  <path
     d="M55.797 42.643l13.617-8.346 27.868-.026-41.485 25.414V42.643z"
     fill="#D90751"
     id="path68" />
  <path
     d="M55.72 25.967l.077 34.39-14.566-8.95V0l14.49 25.967z"
     fill="#FAB718"
     id="path70" />
  <path
     d="M97.282 34.271l-27.869.026-13.693-8.33L41.231 0l56.05 34.271z"
     fill="#ED6F26"
     id="path72" />
  <path
     d="M55.797 94.007V77.322l-14.566-8.78.008 51.458 14.558-25.993z"
     fill="#63B22F"
     id="path74" />
  <path
     d="M69.38 85.737L14.531 52.095 0 26.12l97.223 59.583-27.844.034z"
     fill="#D90751"
     id="path76" />
  <path
     d="M41.24 120l14.556-25.993 13.583-8.27 27.843-.034L41.24 120z"
     fill="#017F36"
     id="path78" />
  <path
     d="M.017 93.863l41.333-25.32-13.896-8.526-12.922 7.922L.017 93.863z"
     fill="#984995"
     id="path80" />
</svg>
